<svg width="24" height="22" viewBox="0 0 24 22" fill="none" xmlns="http://www.w3.org/2000/svg">
<path d="M20.7336 3.52456C20.2228 3.01356 19.6164 2.60821 18.9489 2.33164C18.2814 2.05508 17.566 1.91273 16.8436 1.91273C16.1211 1.91273 15.4057 2.05508 14.7382 2.33164C14.0707 2.60821 13.4643 3.01356 12.9536 3.52456L11.8936 4.58456L10.8336 3.52456C9.80186 2.49287 8.40258 1.91327 6.94355 1.91327C5.48452 1.91327 4.08524 2.49287 3.05355 3.52456C2.02186 4.55625 1.44226 5.95553 1.44226 7.41456C1.44226 8.87359 2.02186 10.2729 3.05355 11.3046L4.11355 12.3646L11.8936 20.1446L19.6736 12.3646L20.7336 11.3046C21.2445 10.7938 21.6499 10.1874 21.9265 9.51992C22.203 8.85246 22.3454 8.13705 22.3454 7.41456C22.3454 6.69207 22.203 5.97666 21.9265 5.30921C21.6499 4.64175 21.2445 4.03532 20.7336 3.52456V3.52456Z" fill="#FF0000" stroke="#FF0000" stroke-width="2" stroke-linecap="round" stroke-linejoin="round"/>
</svg>
